<?xml version="1.0" standalone="no"?>
<!DOCTYPE svg PUBLIC "-//W3C//DTD SVG 20010904//EN"
 "http://www.w3.org/TR/2001/REC-SVG-20010904/DTD/svg10.dtd">
<svg version="1.0" xmlns="http://www.w3.org/2000/svg"
 width="48.000000pt" height="48.000000pt" viewBox="0 0 48.000000 48.000000"
 preserveAspectRatio="xMidYMid meet">

<g transform="translate(0.000000,48.000000) scale(0.100000,-0.100000)"
fill="#000000" stroke="none">
<path d="M30 461 c-13 -26 -13 -416 0 -442 10 -18 23 -19 210 -19 223 0 220
-1 220 75 0 46 -15 75 -40 75 -19 0 -20 7 -20 133 l0 133 -33 32 -33 32 -147
0 c-134 0 -147 -2 -157 -19z m290 -26 c0 -33 2 -35 35 -35 l35 0 0 -114 0
-113 -25 5 c-17 3 -27 -1 -31 -12 -3 -9 -17 -16 -30 -16 -31 0 -47 -32 -42
-86 l3 -44 -112 0 -113 0 0 219 c0 166 3 221 13 224 6 3 69 6 140 6 l127 1 0
-35z m50 -16 c0 -5 -7 -9 -15 -9 -9 0 -15 9 -15 21 0 18 2 19 15 9 8 -7 15
-16 15 -21z m0 -259 c0 -5 -4 -10 -10 -10 -5 0 -10 5 -10 10 0 6 5 10 10 10 6
0 10 -4 10 -10z m-60 -80 c0 -47 -3 -60 -15 -60 -11 0 -15 13 -15 54 0 48 4
58 28 65 1 1 2 -26 2 -59z m80 0 l0 -60 -30 0 -30 0 0 60 0 60 30 0 30 0 0
-60z m50 -6 c0 -47 -2 -54 -20 -54 -17 0 -20 7 -20 53 0 58 4 68 26 60 10 -3
14 -22 14 -59z"/>
<path d="M168 433 c23 -2 59 -2 80 0 20 2 1 4 -43 4 -44 0 -61 -2 -37 -4z"/>
<path d="M158 403 c28 -2 76 -2 105 0 28 2 5 3 -53 3 -58 0 -81 -1 -52 -3z"/>
<path d="M77 333 c-4 -3 -7 -24 -7 -45 l0 -38 50 0 c48 0 50 1 49 28 -2 23 -2
24 -6 5 -4 -19 -11 -23 -39 -23 -31 0 -34 2 -34 30 0 23 4 30 20 30 11 0 20 5
20 10 0 11 -43 14 -53 3z"/>
<path d="M140 315 c-7 -8 -20 -15 -28 -15 -13 0 -13 -3 -4 -12 10 -10 18 -6
39 15 15 15 23 27 16 27 -6 0 -16 -7 -23 -15z"/>
<path d="M213 293 c15 -2 39 -2 55 0 15 2 2 4 -28 4 -30 0 -43 -2 -27 -4z"/>
<path d="M72 188 l3 -43 48 -3 48 -3 -3 41 c-1 23 -4 43 -7 45 -4 2 -20 -8
-36 -21 -26 -21 -28 -24 -10 -24 12 0 26 5 33 12 9 9 12 7 12 -10 0 -18 -6
-22 -35 -22 -32 0 -35 2 -35 29 0 23 5 31 23 34 15 3 12 5 -11 6 -33 1 -33 1
-30 -41z"/>
<path d="M190 190 c0 -5 23 -10 50 -10 28 0 50 5 50 10 0 6 -22 10 -50 10 -27
0 -50 -4 -50 -10z"/>
<path d="M77 123 c-4 -3 -7 -24 -7 -45 l0 -38 50 0 c48 0 50 1 49 28 -2 23 -2
24 -6 5 -4 -19 -11 -23 -39 -23 -31 0 -34 2 -34 30 0 23 4 30 20 30 11 0 20 5
20 10 0 11 -43 14 -53 3z"/>
<path d="M140 105 c-7 -8 -20 -15 -28 -15 -13 0 -13 -3 -4 -12 10 -10 18 -6
39 15 15 15 23 27 16 27 -6 0 -16 -7 -23 -15z"/>
<path d="M203 83 c9 -2 25 -2 35 0 9 3 1 5 -18 5 -19 0 -27 -2 -17 -5z"/>
</g>
</svg>
