<!-- icon666.com - MILLIONS vector ICONS FREE --><svg viewBox="0 0 60 60" xmlns="http://www.w3.org/2000/svg">
<g id="_x31_4_Order"><g id="_x31_4_Order_1_">
<g id="Order">
<path d="m357 210h-202c-8.3 0-15 6.7-15 15v30.5c0 8.3 6.7 15 15 15h3.5v111.5c0 13.8 11.2 25 25 25h145c13.8 0 25-11.2 25-25v-111.5h3.5c8.3 0 15-6.7 15-15v-30.5c0-8.3-6.7-15-15-15zm-83.5 15v76h-35v-76zm65 157c0 5.5-4.5 10-10 10h-145c-5.5 0-10-4.5-10-10v-111.5h22.5c4.1 0 7.5-3.4 7.5-7.5s-3.4-7.5-7.5-7.5h-41v-30.5h68.5v83.5c0 4.1 3.4 7.5 7.5 7.5h50c4.1 0 7.5-3.4 7.5-7.5v-38h50zm18.5-126.5h-68.5v-30.5h68.5z"></path><path d="m281 361.5h-50c-4.1 0-7.5-3.4-7.5-7.5s3.4-7.5 7.5-7.5h50c4.1 0 7.5 3.4 7.5 7.5s-3.4 7.5-7.5 7.5z"></path><path d="m417 15h-68.1c-3.9-8.8-12.7-15-22.9-15h-140c-10.2 0-19 6.2-22.9 15h-68.1c-23.4 0-42.5 19.1-42.5 42.5v55c0 4.1 3.4 7.5 7.5 7.5s7.5-3.4 7.5-7.5v-55c0-15.2 12.3-27.5 27.5-27.5h66v15h-48.5c-13.8 0-25 11.2-25 25v382c0 13.8 11.2 25 25 25h287c13.8 0 25-11.2 25-25v-52.5c0-4.1-3.4-7.5-7.5-7.5s-7.5 3.4-7.5 7.5v52.5c0 5.5-4.5 10-10 10h-287c-5.5 0-10-4.5-10-10v-382c0-5.5 4.5-10 10-10h48.5c0 13.8 11.2 25 25 25h140c13.8 0 25-11.2 25-25h48.5c5.5 0 10 4.5 10 10v294.5c0 4.1 3.4 7.5 7.5 7.5s7.5-3.4 7.5-7.5v-294.5c0-13.8-11.2-25-25-25h-48.5v-15h66c15.2 0 27.5 12.3 27.5 27.5v412c0 15.2-12.3 27.5-27.5 27.5h-322c-15.2 0-27.5-12.3-27.5-27.5v-322c0-4.1-3.4-7.5-7.5-7.5s-7.5 3.4-7.5 7.5v322c0 23.4 19.1 42.5 42.5 42.5h322c23.4 0 42.5-19.1 42.5-42.5v-412c0-23.4-19.1-42.5-42.5-42.5zm-81 45c0 5.5-4.5 10-10 10h-140c-5.5 0-10-4.5-10-10v-35c0-5.5 4.5-10 10-10h140c5.5 0 10 4.5 10 10z"></path><path d="m326 137.5h-140c-4.1 0-7.5-3.4-7.5-7.5s3.4-7.5 7.5-7.5h140c4.1 0 7.5 3.4 7.5 7.5s-3.4 7.5-7.5 7.5z"></path><path d="m326 172.5h-140c-4.1 0-7.5-3.4-7.5-7.5s3.4-7.5 7.5-7.5h140c4.1 0 7.5 3.4 7.5 7.5s-3.4 7.5-7.5 7.5z"></path></g></g></g></svg>